<?xml version="1.0" encoding="UTF-8" standalone="no"?>
<!-- Created with Inkscape (http://www.inkscape.org/) -->

<svg
   xmlns:dc="http://purl.org/dc/elements/1.1/"
   xmlns:cc="http://creativecommons.org/ns#"
   xmlns:rdf="http://www.w3.org/1999/02/22-rdf-syntax-ns#"
   xmlns:svg="http://www.w3.org/2000/svg"
   xmlns="http://www.w3.org/2000/svg"
   xmlns:sodipodi="http://sodipodi.sourceforge.net/DTD/sodipodi-0.dtd"
   xmlns:inkscape="http://www.inkscape.org/namespaces/inkscape"
   width="339.6954"
   height="298.79126"
   id="svg3313"
   version="1.1"
   inkscape:version="0.92.1 r15371"
   sodipodi:docname="AnyBodyPyTools Logo.svg"
   inkscape:export-filename="C:\Users\mel\Documents\AnyPyTools\docs\_static\anypytools_logo.png"
   inkscape:export-xdpi="41.782955"
   inkscape:export-ydpi="41.782955">
  <defs
     id="defs3315" />
  <sodipodi:namedview
     id="base"
     pagecolor="#ffffff"
     bordercolor="#000000"
     borderopacity="1"
     inkscape:pageopacity="0"
     inkscape:pageshadow="2"
     inkscape:zoom="1.4497623"
     inkscape:cx="94.894008"
     inkscape:cy="117.5708"
     inkscape:document-units="px"
     inkscape:current-layer="layer1"
     showgrid="false"
     fit-margin-top="1"
     fit-margin-left="1"
     fit-margin-right="1"
     fit-margin-bottom="1"
     inkscape:window-width="1920"
     inkscape:window-height="1017"
     inkscape:window-x="-8"
     inkscape:window-y="-8"
     inkscape:window-maximized="1"
     showguides="true"
     inkscape:guide-bbox="true"
     showborder="true"
     borderlayer="true"
     inkscape:showpageshadow="true"
     inkscape:snap-global="false"
     inkscape:pagecheckerboard="true"
     scale-x="0.4" />
  <metadata
     id="metadata3318">
    <rdf:RDF>
      <cc:Work
         rdf:about="">
        <dc:format>image/svg+xml</dc:format>
        <dc:type
           rdf:resource="http://purl.org/dc/dcmitype/StillImage" />
        <dc:title></dc:title>
      </cc:Work>
    </rdf:RDF>
  </metadata>
  <g
     inkscape:label="Layer 1"
     inkscape:groupmode="layer"
     id="layer1"
     transform="translate(-148.40739,-277.93913)">
    <path
       inkscape:connector-curvature="0"
       id="path3049"
       d="m 277.03687,338.21053 c 0,0 -2.11741,4.83981 0.70579,10.88958 2.82319,5.94893 -0.20167,1.61327 -3.12568,-2.52074 -2.92401,-4.33566 -2.41988,0.60498 -2.62153,2.82322 0,2.21826 -0.80663,0.60498 -1.10911,-5.64644 -0.40332,-6.25143 -16.43502,-18.35096 -19.964,-6.75557 -3.529,11.59538 -2.72237,2.01659 -1.20993,-4.4365"
       style="fill:#a7a6a6;fill-opacity:1;fill-rule:nonzero;stroke:none" />
    <path
       style="fill:#ffffff;fill-opacity:1;fill-rule:nonzero;stroke:none"
       d="m 295.75906,280.84543 c -11.48555,-1.34329 -1.71225,3.15354 3.21884,6.32127 5.35948,3.40445 11.23901,6.80026 16.28116,10.20998 -3.62582,2.16391 -6.34005,5.6753 -8.4375,9.125 -14.5209,2.67274 -29.07118,-4.82086 -43.5,-0.25 -10.66503,2.74891 -14.29443,14.54975 -18.09375,23.5625 -1.0638,4.93741 -4.4687,10.03557 -3.71875,14.96875 1.68275,2.93973 4.511,-0.98143 5.40625,-1.28125 1.81171,3.07484 4.34824,-2.43556 4.625,1.59375 0.63894,2.56061 4.25542,3.0712 5.25,0.71875 0.28525,3.63754 5.24506,5.34125 6.75,1.46875 0.0427,3.56675 4.22262,5.32372 6.28125,3.59375 1.69673,3.07067 4.81446,1.03627 4.25,-1.625 1.91776,3.8421 5.30244,5.26137 8.71875,7.34375 3.87549,1.81089 6.13841,-3.03718 6.25,-5.71875 2.15498,2.5031 6.36526,8.45478 9.84375,4.40625 1.13906,-1.1585 -0.80558,-4.41761 1.59375,-2.5625 2.17252,1.74421 9.07999,4.29948 7.9375,-0.96875 -3.53401,-5.1542 -10.97171,-5.69434 -15.8125,-9.46875 -5.1378,-3.63637 -13.23333,-6.95986 -13.90625,-14 0.7748,-7.77486 7.13243,-16.62601 15.875,-14.5 3.27235,0.25949 6.61741,0.56067 9.875,0.0937 -0.86797,3.51157 -1.29158,7.45781 3.5625,7.6875 20.95675,8.90357 42.92819,18.42414 58.65625,35.28125 2.22819,2.53252 4.30178,5.35922 5,8.71875 26.88643,-7.08943 54.98267,-11.4792 82.90625,-8.8125 5.03781,-6.33607 4.89916,-15.09383 3.6875,-22.71875 9.6146,-0.76021 19.22774,-1.53892 28.84375,-2.28125 -30.76646,-17.50705 -61.33801,-35.7551 -92.21875,-52.8125 -33.04167,0.63542 -66.08333,1.27083 -99.125,1.90625 z"
       id="path3049-1"
       inkscape:connector-curvature="0" />
    <path
       style="fill:#ffffff;fill-opacity:1;fill-rule:evenodd;stroke:none"
       d="m 437.1875,368 c -11.60791,-0.0644 -18.62412,14.74493 -12,24 5.63456,9.4197 20.88287,8.89382 26,-0.6875 6.06039,-10.3475 -1.70823,-24.19242 -14,-23.3125 z"
       id="path3001-5"
       inkscape:connector-curvature="0" />
    <text
       id="text3009"
       y="560.8064"
       x="151.68671"
       style="font-style:oblique;font-variant:normal;font-weight:normal;font-stretch:normal;line-height:0%;font-family:Candara;-inkscape-font-specification:'Candara Oblique';text-align:start;letter-spacing:-4.0219326px;word-spacing:0px;writing-mode:lr-tb;text-anchor:start;fill:#ffffff;fill-opacity:1;stroke:#4d4d4d;stroke-width:1.89999998;stroke-miterlimit:4;stroke-dasharray:none"
       xml:space="preserve"><tspan
         style="font-style:oblique;font-variant:normal;font-weight:normal;font-stretch:normal;font-size:66.40076447px;line-height:1.25;font-family:Arial;-inkscape-font-specification:'Arial Oblique';letter-spacing:-2.83886123px;word-spacing:0px;fill:#ffffff;fill-opacity:1;stroke:#4d4d4d;stroke-width:1.89999998;stroke-miterlimit:4;stroke-dasharray:none"
         y="560.8064"
         x="151.68671"
         id="tspan3011"
         sodipodi:role="line">AnyPyTools</tspan></text>
    <path
       inkscape:connector-curvature="0"
       id="path3043"
       d="m 373.22702,362.40959 c 0,0 51.11992,-13.30948 80.36012,-7.76386 0,0 5.54556,-7.8647 1.61326,-22.38413 l 25.30789,-2.01659 -85.60319,-49.30558 -99.11419,1.91575 24.09796,14.92276 c 0,0 -12.70435,4.03317 -14.01513,20.77086 0,0 59.18619,22.08164 67.35328,43.86079"
       style="fill:#3e4862;fill-opacity:1;fill-rule:nonzero;stroke:none" />
    <path
       inkscape:connector-curvature="0"
       id="path3045"
       d="m 319.48555,297.47545 62.71519,37.10523 73.70545,-2.31908 c 0,0 3.52899,15.12441 -2.31905,22.38413 0,0 -31.66007,-4.43649 -80.56178,8.46966 0,0 -5.04142,-20.06505 -67.15162,-44.56659 0,0 0,-15.4269 13.61181,-21.07335"
       style="fill:#595f79;fill-opacity:1;fill-rule:nonzero;stroke:none" />
    <path
       inkscape:connector-curvature="0"
       id="path3047"
       d="m 276.73437,328.02677 c -1.91573,10.08293 28.43357,22.78743 28.43357,22.78743 0,0 4.13396,3.93235 -1.31076,1.31079 -14.51928,-7.05805 -11.3936,-4.63815 -8.16709,-1.71411 3.2265,2.92406 1.61324,8.26802 -4.63811,-0.50414 0,0 -4.03312,-3.52903 -4.13395,-0.10086 -0.20166,3.32737 -0.80662,6.75557 -4.73893,4.23484 -4.03314,-2.52074 -8.46957,-14.62027 -10.18365,-11.09123 -1.51243,3.32737 -4.63811,9.88128 -6.15053,4.94064 -1.61325,-4.83982 -1.41159,-6.15061 -3.02485,-3.32738 -1.61325,2.82323 -3.22649,6.25142 -4.94057,-2.82323 -1.91574,-9.07465 -1.10912,0.90747 -3.12569,3.42821 -2.01657,2.62156 -3.93231,-15.52774 -7.76377,-6.04977 -0.90745,2.0166 -4.94059,7.25972 -3.529,3.12572 1.4116,-4.03318 4.33563,-17.84681 12.30106,-28.83721 7.8646,-11.09125 35.28988,-4.83982 35.28988,-4.83982 9.98201,1.41161 28.53441,1.41161 31.15594,-13.30948 2.52071,-14.72109 19.86316,-10.18376 19.86316,-10.18376 19.66152,3.52903 41.33959,14.31777 41.33959,14.31777 0,0 6.55383,-1.81493 9.78035,2.31908 3.42816,4.23483 1.41159,9.47795 -6.04971,5.8481 0,0 -4.83975,-2.52074 -4.83975,-6.75557 0,0 -27.52612,-10.58708 -33.1725,-11.79705 -5.64638,-1.10911 -19.96398,-3.73069 -22.98884,3.12572 -3.02485,6.95724 0.30249,16.83851 -23.19051,19.96422 0,0 -5.94886,0.10085 -9.57868,-0.50415 0,0 -13.20849,-2.31907 -16.63666,16.43521"
       style="fill:#a7a6a6;fill-opacity:1;fill-rule:nonzero;stroke:none" />
    <g
       id="g1466"
       transform="matrix(0.9475327,0,0,0.9475327,128.44834,-277.65614)">
      <g
         id="g1425"
         transform="matrix(1.0666666,0,0,1.0666666,-23.261452,536.39904)">
        <path
           d="m 248.26641,149.18912 h -14.28207 c -0.78275,0 -1.36951,0.39137 -1.95656,0.78274 -0.58706,0.58676 -0.78245,1.17382 -0.78245,1.95656 l 0.58676,82.95403 -38.73801,-83.93246 c -0.19569,-0.58675 -0.39137,-1.17381 -0.97813,-1.3695 -0.19569,-0.39137 -0.78274,-0.39137 -1.3695,-0.39137 h -17.99951 c -0.78274,0 -1.3698,0.39137 -1.76087,0.78274 -0.58706,0.58676 -0.97843,1.17382 -0.97843,1.95656 v 113.27935 c 0,0.58706 0.39137,1.3695 0.97843,1.95656 0.39107,0.58676 0.97813,0.78244 1.76087,0.78244 h 14.47776 c 0.78245,0 1.3695,-0.19568 1.95656,-0.78244 0.39107,-0.58706 0.78244,-1.3695 0.78244,-1.95656 l -0.78244,-82.56296 38.73801,83.73678 c 0,0.58705 0.58676,0.78274 0.78245,0.97842 0.58705,0.39108 1.17411,0.58676 1.76087,0.58676 h 17.80382 c 0.97843,0 1.3695,-0.19568 1.95656,-0.78244 0.58705,-0.58706 0.78244,-1.3695 0.78244,-1.95656 V 151.92842 c 0,-0.78274 -0.19539,-1.3698 -0.78244,-1.95656 -0.58706,-0.39137 -0.97813,-0.78274 -1.95656,-0.78274 z"
           style="fill:#953337;fill-opacity:1;fill-rule:evenodd;stroke-width:2.97847247"
           id="path143"
           inkscape:connector-curvature="0" />
        <path
           d="m 301.28679,147.81962 c -0.58706,-0.78244 -0.97813,-0.97813 -1.56519,-1.3695 -0.78244,-0.19569 -1.3695,-0.19569 -2.15224,0.39137 l -13.69502,7.04319 c -0.78274,0.19569 -1.3698,0.78275 -1.3698,1.56519 -0.19538,0.78274 -0.19538,1.3695 0.39138,2.15225 l 36.19469,64.75913 v 42.84652 c 0,0.58706 0.19569,1.3695 0.78274,1.95656 0.39108,0.58676 0.97813,0.78244 1.76058,0.78244 h 14.47805 c 0.78245,0 1.36951,-0.19568 1.95626,-0.78244 0.58706,-0.58706 0.78275,-1.3695 0.78275,-1.95656 v -42.84652 l 36.39038,-64.75913 c 0.19568,-0.39138 0.19568,-0.97843 0.19568,-1.36951 0,-0.39137 0,-0.97842 -0.19568,-1.3695 -0.19569,-0.39137 -0.78275,-0.78274 -1.17382,-0.97843 l -13.69531,-7.04319 c -0.58706,-0.58706 -1.3695,-0.58706 -1.95656,-0.39137 -0.78274,0.39137 -1.3695,0.58706 -1.56519,1.3695 l -27.782,53.60744 z"
           style="fill:#952c36;fill-opacity:1;fill-rule:evenodd;stroke-width:2.97847247"
           id="path145"
           inkscape:connector-curvature="0" />
        <path
           d="m 81.770993,118.08136 c -0.587056,0.39137 -0.782444,0.78274 -1.173816,1.56519 L 44.011112,263.4469 v 1.67628 c 0.05004,0.15161 0.113182,0.31036 0.195685,0.47596 0.391372,0.39137 0.978131,0.97813 1.760873,0.97813 l 14.282073,4.1088 c 0.391372,0 0.782743,0.39108 1.3698,0 0.391073,0 0.782444,-0.19568 1.369501,-0.78274 0.391074,-0.19568 0.586759,-0.78244 0.586759,-1.17381 L 74.532114,223.1437 h 35.020876 l 11.1517,45.58582 c 0,0.39137 0.19569,0.97813 0.39137,1.17381 0.39137,0.58706 0.97813,0.78274 1.3695,0.78274 0.39138,0.39108 0.97813,0.39108 1.36951,0 l 14.28237,-3.71743 c 0.78244,-0.39137 1.3695,-0.97813 1.56518,-1.3695 0.58676,-0.78274 0.58676,-1.3695 0.58676,-2.15224 L 103.48793,119.64655 c -0.19569,-0.78245 -0.58706,-1.17382 -0.97843,-1.56519 -0.55906,-0.3729 -1.11841,-0.57008 -1.67747,-0.58706 -0.0277,-5.9e-4 -0.0554,0 -0.0834,0 H 83.336181 c -0.03693,0 -0.07089,-5.9e-4 -0.106332,0 -0.727938,0.017 -1.272403,0.21416 -1.458856,0.58706 z m -2.739003,86.67146 13.108257,-54.38958 12.717183,54.38958 z"
           style="fill:#953337;fill-opacity:1;fill-rule:evenodd;stroke-width:2.97847247"
           id="path147"
           inkscape:connector-curvature="0" />
        <path
           d="m 328.04029,137.65775 c -3.91282,0 -6.84751,1.36951 -9.58651,3.91282 -2.34793,2.73901 -3.71743,5.86938 -3.71743,9.39113 0,3.91282 1.3695,7.23888 3.71743,9.58681 2.739,2.739 5.67369,4.1085 9.58651,4.1085 3.52175,0 6.84781,-1.3695 9.58681,-4.1085 2.34793,-2.34793 3.71743,-5.67399 3.71743,-9.58681 0,-3.52175 -1.3695,-6.65212 -3.71743,-9.39113 -2.739,-2.54331 -6.06506,-3.91282 -9.58681,-3.91282 z"
           style="fill:#999999;fill-opacity:1;fill-rule:evenodd;stroke-width:2.97847247"
           id="path152"
           inkscape:connector-curvature="0" />
      </g>
    </g>
  </g>
</svg>
